<?xml version="1.0" encoding="UTF-8" standalone="no"?>
<!DOCTYPE svg PUBLIC "-//W3C//DTD SVG 1.1//EN" "http://www.w3.org/Graphics/SVG/1.1/DTD/svg11.dtd">
<svg width="100%" height="100%" viewBox="0 0 1955 1070" version="1.1" xmlns="http://www.w3.org/2000/svg" xmlns:xlink="http://www.w3.org/1999/xlink" xml:space="preserve" xmlns:serif="http://www.serif.com/" style="fill-rule:evenodd;clip-rule:evenodd;stroke-linejoin:round;stroke-miterlimit:2;">
    <g id="Artboard1" transform="matrix(0.942147,0,0,0.899131,-366.251,-155.885)">
        <rect x="388.741" y="173.373" width="2074.22" height="1189.66" style="fill:none;"/>
        <g transform="matrix(1.07196,0,0,1.12305,-78.2778,-65.7467)">
            <path d="M1142.24,1036.85C1135.27,1040.91 1107.79,1069.15 1100.35,1076.28L984.757,1187.27C958.122,1212.75 942.62,1215.3 909.264,1228.22C824.47,1261.07 741.904,1263.16 652.397,1261.15C608.66,1228.86 561.107,1199.2 517.088,1166.9C498.844,1153.51 475.563,1136.26 456.276,1125.12C470.984,1048.78 490.029,971.911 505.166,895.146C506.287,889.363 507.439,883.586 508.62,877.815C519.825,831.832 528.789,784.792 538.587,738.486L570.312,591.684C580.129,544.606 594.295,490.263 602.066,443.515C603.894,436.811 605.043,430.501 606.343,423.698C608.147,416.676 609.897,404.997 612.041,399.171C621.099,391.231 634.349,382.075 644.287,374.894L697.63,336.648L842.848,232.066L1314.06,232.195L1314.02,326.03L872.166,326.09C857.663,334.617 837.197,350.21 823.112,360.314L733.449,424.852C724.79,431.054 704.692,446.389 696.701,451.08L602.876,890.175L571.255,1036.66C567.982,1051.54 565.105,1069.03 561.516,1083.44C570.683,1091.22 584.975,1100.48 595.212,1107.71C617.245,1123.34 639.404,1138.79 661.685,1154.06C667.045,1157.74 680.441,1165.35 683.713,1167.91C709.205,1168.46 736.785,1168.83 763.31,1166.61C813.153,1162.43 868.436,1148.45 913.582,1126.16C916.867,1124.54 924.507,1117.36 927.447,1114.54C970.917,1072.17 1014.65,1030.08 1058.65,988.26C1083.96,963.891 1110.38,937.862 1136.29,914.205L1679.14,914.192C1734.31,963.093 1792.56,1021.68 1846.38,1073.22L1883.46,1108.71C1886.2,1111.34 1899.02,1124.16 1901.21,1125.23C1971.07,1159.32 2048.77,1171.16 2126,1168.09C2132.48,1167.84 2139.53,1164.96 2144.65,1161.25C2179.55,1135.98 2221.2,1110.68 2254.51,1083.95L2185.84,762.974C2164.34,658.927 2142.13,555.025 2119.22,451.277C2078.95,421.863 2038.49,392.712 1997.84,363.824C1982.3,352.743 1960.1,335.481 1944.63,326.019L1454.91,326.054C1454.91,408.006 1453.94,492.161 1455.04,573.925C1510.65,594.603 1546.11,636.242 1556.53,695.183C1567.97,759.922 1527.99,826.012 1468.98,852.642C1432.69,869.133 1391.29,870.345 1354.1,856.006C1234.27,810.61 1225.76,648.144 1334.81,585.839C1343.34,580.966 1352.55,577.922 1360.91,573.265L1360.86,353.04C1360.87,313.627 1361.57,271.479 1360.68,232.237L1773.58,232.187C1839.43,232.189 1908.55,233.261 1974.17,231.94C1994.08,247.074 2014.5,261.19 2034.73,275.842L2202.45,397.003C2206.81,404.694 2217.13,459.133 2219.82,471.883L2251.12,618.704L2316.72,924.592L2347.96,1069.61C2351.59,1087.03 2357.26,1108.37 2359.91,1125.32C2338.56,1137.18 2298.75,1167.07 2277.39,1182L2197.77,1237.63C2187.11,1245.03 2173,1253.97 2162.95,1261.36C2134.04,1261.4 2099.61,1262.31 2071.1,1261.05C2011.58,1258.38 1952.9,1246.08 1897.31,1224.64C1886.82,1220.64 1853.86,1208.12 1847.2,1202.19C1776.71,1139.41 1710.44,1068.17 1639.86,1005.72L1176.67,1005.72C1170.6,1008.42 1147.72,1031.1 1142.24,1036.85ZM1398.38,651.659C1363.08,657.041 1338.78,689.969 1344.04,725.293C1349.31,760.616 1382.16,785.025 1417.5,779.877C1453,774.704 1477.55,741.669 1472.26,706.18C1466.97,670.691 1433.86,646.252 1398.38,651.659Z" style="fill:url(#_Linear1);"/>
        </g>
        <g transform="matrix(1.07196,0,0,1.12305,-78.2778,-65.7467)">
            <path d="M891.268,488.958L985.734,488.895L985.837,606.002L1102.76,605.954L1102.83,699.695C1064.46,700.369 1024.26,699.805 985.765,699.87C985.35,738.57 985.761,778.036 985.772,816.799L891.207,816.754L891.214,699.813L774.699,699.796L774.746,606.081L891.245,605.979L891.268,488.958Z" style="fill:url(#_Linear2);fill-rule:nonzero;"/>
        </g>
        <g transform="matrix(1.07196,0,0,1.12305,-89.724,-90.9087)">
            <path d="M2009.22,511.3C2022.38,522.771 2051.78,549.44 2063.23,561.991C2068.44,566.335 2072.19,569.422 2076.84,574.4L2059.49,592.768C2052.22,601.289 2044.74,609.627 2037.06,617.775C2033.55,621.566 2029.03,626.736 2025.31,630.091C2014.63,643.984 1995.02,664.423 1982.91,677.82L1913.66,755.208L1872.09,801.898C1865.38,809.521 1852.3,825.542 1845.17,831.024C1828.19,816.159 1808.25,796.152 1791.55,780.331L1703.49,697.132L1701.48,695.064C1696.96,691.15 1692.47,686.953 1688.04,682.918C1707.99,660.649 1730.33,635.83 1750.91,614.181C1758.57,620.36 1766.8,629.416 1774.34,636.209C1795.95,655.66 1818.1,679.575 1839.84,698.276L1957.22,568.283C1973.97,549.782 1991.83,528.892 2009.22,511.3Z" style="fill:url(#_Linear3);fill-rule:nonzero;"/>
        </g>
    </g>
    <defs>
        <linearGradient id="_Linear1" x1="0" y1="0" x2="1" y2="0" gradientUnits="userSpaceOnUse" gradientTransform="matrix(1924.24,22.3417,-22.338,1924.56,435.669,786.277)"><stop offset="0" style="stop-color:rgb(130,140,248);stop-opacity:1"/><stop offset="1" style="stop-color:rgb(191,132,252);stop-opacity:1"/></linearGradient>
        <linearGradient id="_Linear2" x1="0" y1="0" x2="1" y2="0" gradientUnits="userSpaceOnUse" gradientTransform="matrix(1903.63,0,0,1903.95,456.276,648.757)"><stop offset="0" style="stop-color:rgb(115,127,255);stop-opacity:1"/><stop offset="1" style="stop-color:rgb(201,148,255);stop-opacity:1"/></linearGradient>
        <linearGradient id="_Linear3" x1="0" y1="0" x2="1" y2="0" gradientUnits="userSpaceOnUse" gradientTransform="matrix(1924.24,0,0,1924.56,446.347,675.252)"><stop offset="0" style="stop-color:rgb(115,127,255);stop-opacity:1"/><stop offset="1" style="stop-color:rgb(201,148,255);stop-opacity:1"/></linearGradient>
    </defs>
</svg>
