<?xml version="1.0" encoding="UTF-8" standalone="no"?><!DOCTYPE svg PUBLIC "-//W3C//DTD SVG 1.1//EN" "http://www.w3.org/Graphics/SVG/1.1/DTD/svg11.dtd"><svg width="100%" height="100%" viewBox="0 0 407 334" version="1.1" xmlns="http://www.w3.org/2000/svg" xmlns:xlink="http://www.w3.org/1999/xlink" xml:space="preserve" xmlns:serif="http://www.serif.com/" style="fill-rule:evenodd;clip-rule:evenodd;stroke-linejoin:round;stroke-miterlimit:2;"><rect id="Artboard1" x="0" y="-0" width="406.054" height="333.665" style="fill:none;"/><path d="M330.167,3.409c13.291,11.583 42.983,38.512 54.547,51.186c5.262,4.386 9.049,7.504 13.745,12.53l-17.522,18.548c-7.343,8.604 -14.897,17.023 -22.653,25.251c-3.545,3.828 -8.11,9.049 -11.867,12.436c-10.786,14.029 -30.591,34.668 -42.822,48.196l-69.938,78.144l-41.983,47.146c-6.777,7.697 -19.987,23.875 -27.188,29.41c-17.148,-15.01 -37.287,-35.212 -54.153,-51.188l-88.935,-84.012l-2.03,-2.088c-4.565,-3.952 -9.099,-8.19 -13.574,-12.265c20.149,-22.486 42.711,-47.548 63.495,-69.408c7.737,6.239 16.048,15.384 23.663,22.243c21.825,19.641 44.195,43.79 66.151,62.674l118.547,-131.264c16.917,-18.681 34.954,-39.775 52.517,-57.539Z" style="fill:url(#_Linear1);fill-rule:nonzero;"/><defs><linearGradient id="_Linear1" x1="0" y1="0" x2="1" y2="0" gradientUnits="userSpaceOnUse" gradientTransform="matrix(1943.37,0,0,1943.37,-1248.24,168.963)"><stop offset="0" style="stop-color:#737fff;stop-opacity:1"/><stop offset="1" style="stop-color:#c994ff;stop-opacity:1"/></linearGradient></defs></svg>